<svg class="svg-canvas" viewBox="95.39110133803275 183.021239604811 233.95753088373203 233.95753088373203" width="1200" height="1200" preserveAspectRatio="none" version="1.1" xmlns="http://www.w3.org/2000/svg" xmlns:xlink="http://www.w3.org/1999/xlink" style="background: rgb(255,255,255);background:#e8e9f3;"><g id="shape_uPfMnwxf3r" ref="shape_uPfMnwxf3r" key="shape_uPfMnwxf3r" mask="">
                  <g transform="translate(120,207.72381526546) rotate(0,92.362976364516,92.276184734542) scale(1,1)" style="opacity: 1;" filter="">
                    <!--普通元素-->
                    <svg version="1.1" id="图层_1" xmlns="http://www.w3.org/2000/svg" xmlns:xlink="http://www.w3.org/1999/xlink" x="0px" y="0px" viewBox="-0.01702117919921875 -0.025000572204589844 62.834041595458984 62.77499771118164" style="enable-background:new 0 0 62.8 62.8;" xml:space="preserve" width="184.72595272903" height="184.55236946908" class="style-removed" preserveAspectRatio="none" data-parent="shape_uPfMnwxf3r">

<path d="M62.3,25.8c-0.7-3.9-2.2-7.8-4.4-11.3c-1.2-1.9-2.6-3.7-4.3-5.3C41.4-3.1,21.4-3.1,9.2,9.2
	C1.6,16.7-1.3,27.2,0.5,37c0.7,3.9,2.2,7.8,4.4,11.3c1.2,1.9,2.6,3.7,4.3,5.3c12.3,12.2,32.2,12.2,44.4,0
	C61.2,46.1,64.1,35.6,62.3,25.8z M44.1,9.9c1.8,1,3.5,2.3,5,3.9c0.2,0.2,0.5,0.5,0.7,0.8c0.6,0.7,1.2,1.4,1.7,2.1L40,23.2L44.1,9.9z
	 M13.8,13.8c1.3-1.3,2.7-2.4,4.2-3.4l4.1,12.8l-10.9-6.3C11.9,15.8,12.8,14.7,13.8,13.8z M8.3,22.1l11,6.3l-12.7,3
	C6.5,28.3,7.1,25.1,8.3,22.1z M28.3,56.1c-3-0.4-5.9-1.3-8.6-2.7l8.6-9.5V56.1z M31.1,31.9L14.7,50c-0.3-0.3-0.6-0.6-1-0.9
	c-0.2-0.2-0.5-0.5-0.7-0.8c-2.9-3.2-4.9-6.9-5.8-10.9L31.1,31.9L31.1,31.9z M23.4,7.8C28.3,6.1,33.6,6,38.5,7.5l-7.4,24.2L23.4,7.8z
	 M34.3,56.2V43.8l8.9,9.6C40.4,54.9,37.4,55.8,34.3,56.2z M49,49.1c-0.3,0.3-0.6,0.6-0.9,0.8L31.4,31.9l24.3,5.2
	C54.6,41.5,52.4,45.7,49,49.1z M43.2,28.3l11.3-6.5c0.5,1.3,1,2.6,1.3,4c0.4,1.8,0.6,3.6,0.6,5.4L43.2,28.3z" fill="#192686" stroke-width="0"></path>
</svg>
                  </g>
                </g></svg>